<?xml version="1.0" encoding="UTF-8"?><!DOCTYPE svg PUBLIC "-//W3C//DTD SVG 1.1//EN" "http://www.w3.org/Graphics/SVG/1.1/DTD/svg11.dtd"><svg xmlns="http://www.w3.org/2000/svg"><symbol id="social-facebook" viewBox="0 0 16 16"><path fill="#444" d="M10.5 3C9.12 3 8 4.12 8 5.5V7H6v2h2v7h2V9h2.25l.5-2H10V5.5c0-.276.224-.5.5-.5H13V3h-2.5z"/></symbol><symbol id="social-flickr" viewBox="0 0 16 16"><path fill="#444" d="M0 8.5C0 6.567 1.567 5 3.5 5S7 6.567 7 8.5 5.433 12 3.5 12 0 10.433 0 8.5zm9 0C9 6.567 10.567 5 12.5 5S16 6.567 16 8.5 14.433 12 12.5 12 9 10.433 9 8.5z"/></symbol><symbol id="social-github" viewBox="0 0 16 16"><path fill="#444" d="M8 .198c-4.418 0-8 3.582-8 8 0 3.535 2.292 6.533 5.47 7.59.4.075.548-.173.548-.384 0-.19-.008-.82-.01-1.49-2.227.485-2.696-.943-2.696-.943-.364-.924-.888-1.17-.888-1.17-.726-.497.055-.486.055-.486.802.056 1.225.824 1.225.824.714 1.223 1.872.87 2.328.665.072-.517.28-.87.508-1.07-1.776-.202-3.644-.888-3.644-3.954 0-.874.313-1.588.824-2.148-.083-.202-.357-1.015.077-2.117 0 0 .672-.215 2.2.82.64-.177 1.323-.266 2.003-.27.68.004 1.365.093 2.004.27 1.527-1.035 2.198-.82 2.198-.82.435 1.102.162 1.916.08 2.117.512.56.822 1.274.822 2.147 0 3.072-1.872 3.748-3.653 3.946.288.248.544.735.544 1.48 0 1.07-.01 1.933-.01 2.196 0 .213.145.462.55.384 3.178-1.06 5.467-4.057 5.467-7.59 0-4.418-3.58-8-8-8z"/></symbol><symbol id="social-github2" viewBox="0 0 16 16"><path fill="#444" d="M0 8.694c0 .725.068 1.38.203 1.968s.323 1.097.563 1.53.545.814.915 1.142c.37.33.773.597 1.206.806s.927.378 1.483.51c.555.13 1.122.22 1.7.273S7.287 15 7.98 15c.7 0 1.338-.025 1.917-.077s1.148-.143 1.706-.274 1.055-.3 1.49-.51c.436-.21.84-.477 1.213-.806s.68-.71.923-1.142.43-.943.566-1.53c.136-.587.203-1.243.203-1.968 0-1.294-.434-2.412-1.3-3.357.047-.125.09-.267.13-.426s.075-.385.11-.68c.033-.295.02-.635-.04-1.02s-.17-.78-.333-1.182l-.117-.023c-.083-.016-.22-.012-.41.012s-.413.07-.666.14c-.253.07-.58.207-.978.408s-.82.452-1.264.755c-.76-.21-1.807-.313-3.137-.313-1.325 0-2.368.104-3.13.313-.443-.303-.867-.554-1.27-.755s-.727-.336-.967-.407c-.24-.07-.464-.116-.673-.137s-.34-.026-.395-.02-.098.018-.13.028c-.16.402-.272.795-.332 1.18s-.073.727-.04 1.022.07.522.11.68c.04.16.083.302.13.427-.866.944-1.3 2.063-1.3 3.357zm1.964 1.964c0-.75.342-1.44 1.025-2.066.202-.188.44-.33.71-.426s.58-.15.92-.164c.342-.013.67-.01.982.008s.7.043 1.158.074c.46.03.855.047 1.19.047s.73-.015 1.188-.046c.46-.03.845-.056 1.158-.074s.64-.02.982-.008c.342.013.648.068.92.164s.507.24.71.426c.684.616 1.026 1.304 1.026 2.066 0 .45-.056.846-.168 1.193s-.256.64-.43.873-.417.434-.728.6c-.31.163-.613.29-.908.38s-.673.157-1.134.206c-.462.05-.874.08-1.236.09s-.823.015-1.38.015S6.93 14.01 6.567 14c-.362-.01-.775-.04-1.236-.09s-.84-.12-1.134-.208c-.295-.09-.597-.215-.908-.38s-.553-.364-.728-.6c-.175-.234-.318-.524-.43-.87s-.168-.746-.168-1.194zM10 10.5c0-.828.448-1.5 1-1.5s1 .672 1 1.5-.448 1.5-1 1.5-1-.672-1-1.5zm-6 0C4 9.672 4.448 9 5 9s1 .672 1 1.5S5.552 12 5 12s-1-.672-1-1.5z"/></symbol><symbol id="social-link" viewBox="0 0 16 16"><path fill="#444" d="M6.88 9.934c-.21 0-.417-.08-.576-.238-1.486-1.486-1.486-3.905 0-5.392l3-3C10.024.584 10.982.187 12 .187s1.976.397 2.696 1.117c1.486 1.487 1.486 3.905 0 5.392l-1.37 1.37c-.318.318-.833.318-1.15 0s-.317-.83 0-1.148l1.37-1.37c.854-.854.854-2.242 0-3.095-.412-.413-.962-.64-1.546-.64s-1.134.227-1.547.64l-3 3c-.853.853-.853 2.24 0 3.094.317.317.317.832 0 1.15-.16.158-.367.237-.575.237z"/><path fill="#444" d="M4 15.813c-1.018 0-1.976-.397-2.696-1.117-1.486-1.486-1.486-3.905 0-5.392l1.37-1.37c.318-.318.833-.318 1.15 0s.317.83 0 1.148l-1.37 1.37c-.854.854-.854 2.242 0 3.095.412.413.96.64 1.546.64s1.134-.227 1.547-.64l3-3c.853-.853.853-2.24 0-3.094-.317-.317-.317-.832 0-1.15s.832-.316 1.15 0c1.485 1.487 1.485 3.906 0 5.393l-3 3c-.72.72-1.68 1.117-2.697 1.117z"/></symbol><symbol id="social-paperplane" viewBox="0 0 32 32"><path fill="#444" d="M31.543.16C31.377.053 31.188 0 31 0c-.193 0-.387.055-.555.168l-30 20c-.31.205-.48.566-.44.936.04.37.28.688.624.824l7.823 3.13 3.68 6.44c.175.308.502.5.856.503H13c.35 0 .677-.185.857-.485l2.077-3.463 9.695 3.877c.118.047.243.07.37.07.17 0 .338-.043.49-.13.264-.147.445-.407.496-.706l5-30c.065-.393-.11-.787-.443-1.004zM3.136 20.777L26.31 5.327 9.46 23.362c-.088-.053-.167-.123-.265-.162l-6.06-2.423zm7.053 3.29l-.008-.01L29.125 3.78l-16.15 25.163-2.786-4.877zm15.027 5.542l-8.54-3.417c-.204-.08-.415-.107-.624-.12L29.205 5.687 25.217 29.61z"/></symbol><symbol id="social-share-alternitive" viewBox="0 0 20 20"><path fill="#444" d="M9 13h2V4h2l-3-4-3 4h2v9zm8-6h-3v2h2v9H4V9h2V7H3c-.553 0-1 .447-1 1v11c0 .552.447 1 1 1h14c.553 0 1-.448 1-1V8c0-.552-.447-1-1-1z"/></symbol><symbol id="social-share" viewBox="0 0 16 16"><path fill="#444" d="M4 10s.92-3 6-3v3l6-4-6-4v3c-4 0-6 2.495-6 5zm7 2H2V6h1.967c.158-.186.327-.365.508-.534.687-.644 1.51-1.135 2.44-1.466H0v10h13V9.803l-2 1.333V12z"/></symbol><symbol id="social-share2" viewBox="0 0 16 16"><path fill="#444" d="M13.5 11c-.706 0-1.342.293-1.797.763L4.97 8.396c.02-.13.03-.26.03-.396s-.01-.267-.03-.396l6.733-3.367c.455.47 1.09.763 1.797.763C14.88 5 16 3.88 16 2.5S14.88 0 13.5 0 11 1.12 11 2.5c0 .135.01.267.03.396L4.298 6.263C3.842 5.793 3.207 5.5 2.5 5.5 1.12 5.5 0 6.62 0 8s1.12 2.5 2.5 2.5c.706 0 1.343-.293 1.797-.763l6.734 3.367c-.02.13-.03.26-.03.396 0 1.38 1.12 2.5 2.5 2.5s2.5-1.12 2.5-2.5-1.12-2.5-2.5-2.5z"/></symbol><symbol id="social-stackoverflow" viewBox="0 0 16 16"><path fill="#444" d="M16 10v6H0v-6h2v4h12v-4zM3 11h10v2H3zm.237-2.165l.433-1.953 9.763 2.164L13 11zM4.37 4.82l.845-1.812 9.063 4.226-.845 1.813zm11.126.828l-1.218 1.587-7.934-6.088L7.224 0h.91z"/></symbol><symbol id="social-xing" viewBox="0 0 20 20"><path fill="#444" d="M17.703 1h-2.828c-.223 0-.553.105-.69.38l-.31.62-5 10 3 6 .31.62s.467.38.69.38h2.828c.5 0 .48-.38.355-.63l-.183-.37-3-6 5-10 .184-.37s.143-.63-.357-.63zM6.815 5.38c-.137-.275-.467-.38-.69-.38H3.297c-.5 0-.48.38-.355.63l.183.37 1.25 2.5-2.25 4.5-.184.37s-.143.63.357.63h2.828c.223 0 .553-.106.69-.38l.31-.62 2.25-4.5L7.125 6l-.31-.62z"/></symbol><symbol id="social-xing2" viewBox="0 0 16 16"><path fill="#444" d="M8 0C3.582 0 0 3.582 0 8s3.582 8 8 8 8-3.582 8-8-3.582-8-8-8zM5.398 10.006H3.952c-.087 0-.152-.04-.19-.098-.037-.062-.04-.142 0-.22L5.3 6.982v-.008l-.98-1.688c-.04-.08-.045-.16-.007-.22.037-.06.11-.09.197-.09h1.446c.222 0 .33.142.403.27 0 0 .987 1.72.993 1.728-.06.103-1.56 2.753-1.56 2.753-.075.133-.18.28-.395.28zm6.837-6.69l-3.2 5.645c-.003.004-.003.008 0 .01l2.037 3.716c.04.08.04.16.003.223-.037.058-.105.09-.192.09H9.44c-.223 0-.333-.146-.405-.274 0 0-2.05-3.75-2.054-3.76.104-.18 3.218-5.69 3.218-5.69.078-.14.17-.276.387-.276h1.46c.088 0 .157.033.193.092.038.062.037.143-.003.223z"/></symbol></svg>