<?xml version="1.0" encoding="UTF-8"?><!DOCTYPE svg PUBLIC "-//W3C//DTD SVG 1.1//EN" "http://www.w3.org/Graphics/SVG/1.1/DTD/svg11.dtd"><svg xmlns="http://www.w3.org/2000/svg"><symbol id="social2-facebook" viewBox="0 0 256 256"><path d="M128 0C57.3 0 0 57.3 0 128s57.3 128 128 128 128-57.3 128-128S198.7 0 128 0zm46 72h-31.1c-3.4 0-5.9 3.1-5.9 6.5V97h33.6l-6.2 25H137v86h-25v-86H88V97h24V78.5c0-17 13.9-30.5 30.9-30.5H174v24z"/></symbol><symbol id="social2-flickr" viewBox="0 0 256 256"><path d="M127.7.4C57 .4-.3 57.7-.3 128.4s57.3 128 128 128 128-57.3 128-128S198.4.4 127.7.4zm-44 160c-19.3 0-35-15.7-35-35s15.7-35 35-35 35 15.7 35 35-15.7 35-35 35zm90 0c-19.3 0-35-15.7-35-35s15.7-35 35-35 35 15.7 35 35-15.7 35-35 35z"/></symbol><symbol id="social2-github" viewBox="0 0 256 256"><path d="M178.6 126.7c-2.2-2-4.7-3.5-7.6-4.6s-6.2-1.6-9.8-1.8c-3.7-.1-7.2-.1-10.5.1s-7.5.5-12.4.8c-4.9.3-9.1.5-12.7.5s-7.8-.2-12.7-.5-9-.6-12.4-.8c-3.3-.2-6.8-.2-10.5-.1-3.6.1-6.9.7-9.8 1.8s-5.4 2.5-7.6 4.6c-7.3 6.7-11 14.1-11 22.1 0 4.8.6 9 1.8 12.8s2.7 6.8 4.6 9.3c1.9 2.5 4.5 4.6 7.8 6.4 3.3 1.8 6.6 3.1 9.7 4.1 3.1.9 7.2 1.7 12.1 2.2s9.3.9 13.2 1c3.9.1 8.8.2 14.8.2s10.9-.1 14.8-.2 8.3-.4 13.2-1c4.9-.5 9-1.3 12.1-2.2 3.2-1 6.4-2.3 9.7-4.1 3.3-1.8 5.9-3.9 7.8-6.4 1.9-2.5 3.4-5.6 4.6-9.3s1.8-8 1.8-12.8c0-8.1-3.7-15.5-11-22.1zm-84.5 36.5c-5.9 0-10.7-7.2-10.7-16 0-8.9 4.8-16 10.7-16 5.9 0 10.7 7.2 10.7 16-.1 8.8-4.8 16-10.7 16zm64.1 0c-5.9 0-10.7-7.2-10.7-16 0-8.9 4.8-16 10.7-16 5.9 0 10.7 7.2 10.7 16s-4.8 16-10.7 16z"/><path d="M128.1-.3C57.4-.3.1 57 .1 127.7s57.3 128 128 128 128-57.3 128-128-57.3-128-128-128zm81.4 149.2c-1.4 6.3-3.5 11.7-6.1 16.4s-5.9 8.7-9.9 12.2-8.3 6.4-13 8.6c-4.7 2.2-10 4-15.9 5.4-6 1.4-12.1 2.4-18.2 2.9-6.2.6-13 .8-20.5.8-7.4 0-14.2-.3-20.4-.8-6.2-.6-12.3-1.5-18.2-2.9-5.9-1.4-11.2-3.2-15.9-5.4-4.6-2.2-8.9-5.1-12.9-8.6s-7.2-7.6-9.8-12.2-4.6-10-6-16.3c-1.4-6.3-2.2-13-2.2-21 0-14 4.6-25.9 13.9-36-.5-1.3-1-2.9-1.4-4.6-.4-1.7-.8-4.2-1.2-7.3-.4-3.2-.2-6.8.4-10.9s1.8-8.3 3.6-12.6c.3-.1.8-.2 1.4-.3.6-.1 2 0 4.2.2s4.6.7 7.2 1.5c2.6.8 6 2.2 10.3 4.4 4.3 2.1 8.9 4.8 13.6 8.1 8.1-2.2 19.3-3.3 33.5-3.3s25.4 1.1 33.5 3.3c4.7-3.2 9.3-5.9 13.5-8.1 4.3-2.1 7.8-3.6 10.5-4.4 2.7-.8 5.1-1.3 7.1-1.5 2-.3 3.5-.3 4.4-.1l1.3.2c1.7 4.3 2.9 8.5 3.6 12.6s.8 7.8.4 10.9c-.4 3.2-.8 5.6-1.2 7.3-.4 1.7-.9 3.2-1.4 4.6 9.3 10.1 13.9 22.1 13.9 35.9.1 7.7-.6 14.7-2.1 21z"/></symbol><symbol id="social2-paperplane" viewBox="0 0 256 256"><path d="M59.7 148.9L90 161c.5.2.9.5 1.3.8l84.2-90.2-115.8 77.3zM94.9 165.3l14 24.4 80.7-125.8-94.7 101.4z"/><path d="M128.4.3C57.7.3.4 57.6.4 128.3s57.3 128 128 128 128-57.3 128-128S199.1.3 128.4.3zm75.5 50.5l-25 150c-.3 1.5-1.2 2.8-2.5 3.5-.8.4-1.6.6-2.4.6-.6 0-1.3-.1-1.9-.4l-48.5-19.4-10.4 17.3c-.9 1.5-2.5 2.4-4.3 2.4h-.1c-1.8 0-3.4-1-4.3-2.5l-18.4-32.2L47 154.4c-1.7-.7-2.9-2.3-3.1-4.1-.2-1.8.6-3.7 2.2-4.7l150-100c.8-.6 1.8-.8 2.8-.8.9 0 1.9.3 2.7.8 1.8 1.3 2.7 3.3 2.3 5.2z"/><path d="M127.4 176l42.7 17.1L190 73.4l-65.8 101.9c1.1.1 2.2.3 3.2.7z"/></symbol><symbol id="social2-twitter" viewBox="0 0 256 256"><path d="M128 0C57.3 0 0 57.3 0 128s57.3 128 128 128 128-57.3 128-128S198.7 0 128 0zm59.9 92c.1 1.4.1 2.8.1 4.2 0 43.4-33 93.4-93.4 93.4-18.5 0-35.8-5.4-50.3-14.7 2.6.3 5.2.5 7.8.5 15.4 0 29.5-5.2 40.8-14-14.4-.3-26.5-9.8-30.7-22.8 2 .4 4.1.6 6.2.6 3 0 5-.4 7.8-1.1-15-3-27.2-16.3-27.2-32.2v-.4c5 2.5 10.4 3.9 15.7 4.1-8.8-5.9-14.2-15.9-14.2-27.3 0-6 1.8-11.6 4.7-16.5C71.4 85.5 95.7 98.5 123 99.9c-.6-2.4-.8-4.9-.8-7.5 0-18.1 14.7-32.8 32.9-32.8 9.4 0 18 4 24 10.4 7.5-1.5 14.5-4.2 20.9-8-2.4 7.7-7.6 14.1-14.4 18.2 6.6-.8 12.9-2.6 18.8-5.1-4.6 6.5-10.1 12.3-16.5 16.9z"/></symbol><symbol id="social2-xing" viewBox="0 0 256 256"><path d="M127.6-.7c-70.7 0-128 57.3-128 128s57.3 128 128 128 128-57.3 128-128-57.3-128-128-128zM97.4 157.4s-1.5 2.9-2.7 5.3-4.2 3.2-6.1 3.2H63.3c-4.4 0-4.3-3.2-3.2-5.5l1.6-3.2 20-40-11-22s-.5-1.2-1.6-3.4C68 89.5 67.8 86 72.2 86h25.1c2 0 4.9 1.1 6.1 3.5l2.8 5.6 11.1 22.3-19.9 40zm106-100.9l-1.6 3.2-44.4 88.9 26.7 53.3s.5 1.2 1.6 3.4 1.3 5.7-3.2 5.7h-25.1c-2 0-4.9-1.1-6.1-3.5l-2.8-5.6-26.7-53.4 44.4-88.9s1.5-2.9 2.8-5.4 4.2-3.3 6.1-3.3h25.1c4.5.1 4.4 3.4 3.2 5.6z"/></symbol></svg>