<?xml version="1.0" encoding="UTF-8"?><!DOCTYPE svg PUBLIC "-//W3C//DTD SVG 1.1//EN" "http://www.w3.org/Graphics/SVG/1.1/DTD/svg11.dtd"><svg xmlns="http://www.w3.org/2000/svg"><symbol id="general-bookmark" viewBox="0 0 16 16"><path fill="#444" d="M3 0v16l5-5 5 5V0z"/></symbol><symbol id="general-calendar" viewBox="0 0 16 16"><path d="M5 6h2v2H5zm3 0h2v2H8zm3 0h2v2h-2zm-9 6h2v2H2zm3 0h2v2H5zm3 0h2v2H8zM5 9h2v2H5zm3 0h2v2H8zm3 0h2v2h-2zM2 9h2v2H2zm11-9v1h-2V0H4v1H2V0H0v16h15V0h-2zm1 15H1V4h13v11z"/></symbol><symbol id="general-chevron-down" viewBox="-469 271 20 20"><path d="M-464.5 278.5c.4-.4 1-.5 1.6 0l3.9 3.7 3.9-3.7c.5-.5 1.1-.4 1.6 0 .4.4.4 1.2 0 1.6-.4.4-4.7 4.5-4.7 4.5-.2.2-.5.3-.8.3s-.6-.1-.8-.3c0 0-4.3-4.1-4.7-4.5-.4-.4-.4-1.1 0-1.6z"/></symbol><symbol id="general-chevron-small-down" viewBox="0 0 20 20"><path d="M13.418 7.86c.27-.27.71-.27.978 0s.272.7 0 .968l-3.908 3.83c-.27.268-.707.268-.98 0l-3.907-3.83c-.27-.267-.27-.7 0-.97s.71-.267.98 0L10 11l3.418-3.14z"/></symbol><symbol id="general-chevron-thin-down" viewBox="0 0 20 20"><path d="M17.418 6.11c.272-.27.71-.27.98 0s.27.7 0 .968l-7.91 7.83c-.27.268-.706.268-.978 0l-7.908-7.83c-.27-.268-.27-.7 0-.97s.71-.267.98 0L10 13.25l7.418-7.14z"/></symbol><symbol id="general-enlarge2" viewBox="0 0 16 16"><path d="M16 0v6.5L13.5 4l-3 3L9 5.5l3-3L9.5 0zM7 10.5l-3 3L6.5 16H0V9.5L2.5 12l3-3z"/></symbol><symbol id="general-price-tag" viewBox="0 0 16 16"><path fill="#444" d="M15.25 0h-6c-.412 0-.99.24-1.28.53L.53 7.97c-.29.29-.29.768 0 1.06l6.44 6.44c.292.29.77.29 1.06 0l7.44-7.44c.292-.292.53-.868.53-1.28v-6c0-.412-.338-.75-.75-.75zM11.5 6c-.828 0-1.5-.672-1.5-1.5S10.672 3 11.5 3s1.5.672 1.5 1.5S12.328 6 11.5 6z"/></symbol><symbol id="general-price-tags" viewBox="0 0 20 16"><path d="M19.25 0h-6c-.412 0-.99.24-1.28.53L4.53 7.97c-.29.29-.29.768 0 1.06l6.44 6.44c.292.29.77.29 1.06 0l7.44-7.44c.292-.292.53-.868.53-1.28v-6c0-.412-.337-.75-.75-.75zM15.5 6c-.828 0-1.5-.672-1.5-1.5S14.672 3 15.5 3s1.5.672 1.5 1.5S16.328 6 15.5 6z"/><path d="M2 8.5L10.5 0H9.25c-.412 0-.99.24-1.28.53L.53 7.97c-.29.29-.29.768 0 1.06l6.44 6.44c.292.29.77.29 1.06 0L8.5 15 2 8.5z"/></symbol></svg>