<?xml version="1.0" encoding="utf-8"?>
<!-- Generator: Adobe Illustrator 18.1.0, SVG Export Plug-In . SVG Version: 6.00 Build 0)  -->
<svg version="1.1" xmlns="http://www.w3.org/2000/svg" xmlns:xlink="http://www.w3.org/1999/xlink" x="0px" y="0px"
	 viewBox="408.2 77.7 160 229.9" enable-background="new 408.2 77.7 160 229.9" xml:space="preserve">
<g id="Layer_2" display="none">
	
		<rect x="284.1" y="-0.3" display="inline" opacity="0.21" fill="#CC1717" stroke="#878787" stroke-width="3" stroke-miterlimit="10" width="392.1" height="560.4"/>
</g>
<g id="Layer_1">
	<path fill="#FFFFFF" d="M528.2,146.7l40,23l0-46L528.2,146.7z M528.2,146.7l40-23l-40-23L528.2,146.7z M528.2,100.7l-40,23l40,23
		L528.2,100.7z M528.2,100.6l-40-23l0,46L528.2,100.6z M448.2,192.7l0-46v0l0,0l-39.9-23l0,46v0l0,0L448.2,192.7z M448.2,100.7
		l-40,23l40,23L448.2,100.7z M448.2,100.7l0,46l40-23L448.2,100.7z M488.2,77.7l-40,23l40,23L488.2,77.7z M488.2,169.7L488.2,169.7
		l-40-23l0,46v0l0,0l39.9,23L488.2,169.7L488.2,169.7z M448.2,238.6l-40-23l0,46L448.2,238.6z M448.2,238.6l-40,23l40,23
		L448.2,238.6z M448.2,284.6l40-23l-40-23L448.2,284.6z M448.2,284.6l40,23l0-46L448.2,284.6z M528.2,192.6l0,46v0l0,0l39.9,23l0-46
		v0l0,0L528.2,192.6z M528.2,284.6l40-23l-40-23L528.2,284.6z M528.2,284.6l0-46l-40,23L528.2,284.6z M488.2,307.6l40-23l-40-23
		L488.2,307.6z M528.2,238.6l0-46v0l0,0l-39.9-23l0,46v0l0,0L528.2,238.6z"/>
</g>
</svg>
