<?xml version="1.0" encoding="utf-8"?>
<!-- Generator: Adobe Illustrator 18.1.0, SVG Export Plug-In . SVG Version: 6.00 Build 0)  -->
<svg version="1.1" id="Layer_1" xmlns="http://www.w3.org/2000/svg" xmlns:xlink="http://www.w3.org/1999/xlink" x="0px" y="0px"
	 viewBox="0 0 256 256" enable-background="new 0 0 256 256" xml:space="preserve">
<path d="M127.7,0.4c-70.7,0-128,57.3-128,128s57.3,128,128,128s128-57.3,128-128S198.4,0.4,127.7,0.4z M83.7,160.4
	c-19.3,0-35-15.7-35-35s15.7-35,35-35s35,15.7,35,35S103,160.4,83.7,160.4z M173.7,160.4c-19.3,0-35-15.7-35-35s15.7-35,35-35
	s35,15.7,35,35S193,160.4,173.7,160.4z"/>
</svg>
