<?xml version="1.0" encoding="utf-8"?>
<!-- Generator: Adobe Illustrator 18.1.0, SVG Export Plug-In . SVG Version: 6.00 Build 0)  -->
<svg version="1.1" id="Layer_1" xmlns="http://www.w3.org/2000/svg" xmlns:xlink="http://www.w3.org/1999/xlink" x="0px" y="0px"
	 viewBox="0 0 256 256" enable-background="new 0 0 256 256" xml:space="preserve">
<g>
	<path d="M178.6,126.7c-2.2-2-4.7-3.5-7.6-4.6s-6.2-1.6-9.8-1.8c-3.7-0.1-7.2-0.1-10.5,0.1
		c-3.3,0.2-7.5,0.5-12.4,0.8c-4.9,0.3-9.1,0.5-12.7,0.5s-7.8-0.2-12.7-0.5s-9-0.6-12.4-0.8c-3.3-0.2-6.8-0.2-10.5-0.1
		c-3.6,0.1-6.9,0.7-9.8,1.8s-5.4,2.5-7.6,4.6c-7.3,6.7-11,14.1-11,22.1c0,4.8,0.6,9,1.8,12.8s2.7,6.8,4.6,9.3
		c1.9,2.5,4.5,4.6,7.8,6.4c3.3,1.8,6.6,3.1,9.7,4.1c3.1,0.9,7.2,1.7,12.1,2.2s9.3,0.9,13.2,1c3.9,0.1,8.8,0.2,14.8,0.2
		c6,0,10.9-0.1,14.8-0.2s8.3-0.4,13.2-1c4.9-0.5,9-1.3,12.1-2.2c3.2-1,6.4-2.3,9.7-4.1c3.3-1.8,5.9-3.9,7.8-6.4
		c1.9-2.5,3.4-5.6,4.6-9.3s1.8-8,1.8-12.8C189.6,140.7,185.9,133.3,178.6,126.7z M94.1,163.2c-5.9,0-10.7-7.2-10.7-16
		c0-8.9,4.8-16,10.7-16c5.9,0,10.7,7.2,10.7,16C104.7,156,100,163.2,94.1,163.2z M158.2,163.2c-5.9,0-10.7-7.2-10.7-16
		c0-8.9,4.8-16,10.7-16c5.9,0,10.7,7.2,10.7,16C168.9,156,164.1,163.2,158.2,163.2z"/>
	<path d="M128.1-0.3c-70.7,0-128,57.3-128,128s57.3,128,128,128s128-57.3,128-128S198.8-0.3,128.1-0.3z M209.5,148.9
		c-1.4,6.3-3.5,11.7-6.1,16.4s-5.9,8.7-9.9,12.2c-4,3.5-8.3,6.4-13,8.6c-4.7,2.2-10,4-15.9,5.4c-6,1.4-12.1,2.4-18.2,2.9
		c-6.2,0.6-13,0.8-20.5,0.8c-7.4,0-14.2-0.3-20.4-0.8c-6.2-0.6-12.3-1.5-18.2-2.9c-5.9-1.4-11.2-3.2-15.9-5.4
		c-4.6-2.2-8.9-5.1-12.9-8.6c-4-3.5-7.2-7.6-9.8-12.2s-4.6-10-6-16.3c-1.4-6.3-2.2-13-2.2-21h0c0-14,4.6-25.9,13.9-36
		c-0.5-1.3-1-2.9-1.4-4.6c-0.4-1.7-0.8-4.2-1.2-7.3c-0.4-3.2-0.2-6.8,0.4-10.9s1.8-8.3,3.6-12.6c0.3-0.1,0.8-0.2,1.4-0.3
		c0.6-0.1,2,0,4.2,0.2c2.2,0.2,4.6,0.7,7.2,1.5c2.6,0.8,6,2.2,10.3,4.4c4.3,2.1,8.9,4.8,13.6,8.1c8.1-2.2,19.3-3.3,33.5-3.3
		c14.2,0,25.4,1.1,33.5,3.3c4.7-3.2,9.3-5.9,13.5-8.1c4.3-2.1,7.8-3.6,10.5-4.4c2.7-0.8,5.1-1.3,7.1-1.5c2-0.3,3.5-0.3,4.4-0.1
		l1.3,0.2c1.7,4.3,2.9,8.5,3.6,12.6s0.8,7.8,0.4,10.9c-0.4,3.2-0.8,5.6-1.2,7.3c-0.4,1.7-0.9,3.2-1.4,4.6
		c9.3,10.1,13.9,22.1,13.9,35.9C211.7,135.6,211,142.6,209.5,148.9z"/>
</g>
</svg>
