<?xml version="1.0" encoding="utf-8"?>
<!-- Generator: Adobe Illustrator 19.2.1, SVG Export Plug-In . SVG Version: 6.00 Build 0)  -->
<svg version="1.1" id="Layer_1" xmlns="http://www.w3.org/2000/svg" xmlns:xlink="http://www.w3.org/1999/xlink" x="0px" y="0px"
	 viewBox="0 0 256 256" style="enable-background:new 0 0 256 256;" xml:space="preserve">
<g>
	<path d="M196.1,82.9c-2-12.7-9.4-20.9-22-24.2c-6-1.6-12.1-1.7-18.2-1.8c-16.2-0.2-32.4-0.3-48.5-0.1c-7,0.1-14.1,0.3-21.1,1.4
		c-12.7,2-20.9,9.4-24.2,22c-1.6,6-1.7,12.1-1.8,18.2c-0.2,16.2-0.3,32.4-0.1,48.5c0.1,7,0.3,14.1,1.4,21.1c2,12.7,9.4,20.9,22,24.2
		c6,1.6,12.1,1.7,18.2,1.8c9,0.2,18,0,27,0c0,0,0,0.1,0,0.1c7,0,14,0.2,21,0c7.2-0.2,14.5-0.3,21.6-1.4c12.7-2,20.9-9.4,24.2-22
		c1.6-6,1.7-12.1,1.8-18.2c0.2-16.2,0.3-32.4,0.1-48.5C197.4,97,197.2,89.8,196.1,82.9z M128.9,168.8c-23.9,0-43.4-19.6-43.3-43.5
		c0.1-23.8,19.6-43.2,43.4-43.2c23.9,0,43.3,19.6,43.3,43.5C172.2,149.4,152.7,168.8,128.9,168.8z M173.8,90.8
		c-5.6,0-10.2-4.5-10.3-10.1c0-5.7,4.5-10.3,10.2-10.3c5.6,0,10.2,4.5,10.2,10.1C184,86.2,179.5,90.8,173.8,90.8z"/>
	<path d="M128.9,97.6c-15.3,0-27.8,12.5-27.9,27.7c0,15.5,12.4,28,27.9,28c15.4,0,27.9-12.5,27.9-27.9
		C156.8,110.1,144.3,97.6,128.9,97.6z"/>
	<path d="M128,0C57.3,0,0,57.3,0,128s57.3,128,128,128s128-57.3,128-128S198.7,0,128,0z M213,153.5c-0.4,5.2-0.6,10.5-1.3,15.7
		c-1.7,11.6-6.6,21.6-15.8,29.2c-8.4,6.9-18.2,9.7-28.8,10.5c-3.4,0.3-6.8,0.4-10.1,0.6c-18.7,0-37.4,0-56,0c-0.5-0.1-1-0.1-1.5-0.2
		c-5.4-0.5-10.9-0.5-16.2-1.5c-18.1-3.5-30.2-13.9-35.6-31.8c-2.2-7.4-2.3-15-2.8-22.6c0-18.7,0-37.4,0-56c0.1-0.9,0.2-1.9,0.3-2.8
		c0.3-4.3,0.4-8.7,1.1-12.9c1.7-11.6,6.6-21.6,15.8-29.2c8.4-6.9,18.2-9.7,28.8-10.5c3.4-0.3,6.8-0.4,10.1-0.6c18.7,0,37.4,0,56,0
		c0.5,0.1,1,0.1,1.5,0.2c5.4,0.5,10.9,0.5,16.2,1.5c18.1,3.5,30.2,13.9,35.6,31.8c2.2,7.4,2.3,15,2.8,22.6
		C213,116.1,213,134.8,213,153.5z"/>
</g>
</svg>
