<?xml version="1.0" encoding="utf-8"?>
<!-- Generator: Adobe Illustrator 18.1.0, SVG Export Plug-In . SVG Version: 6.00 Build 0)  -->
<svg version="1.1" id="Layer_1" xmlns="http://www.w3.org/2000/svg" xmlns:xlink="http://www.w3.org/1999/xlink" x="0px" y="0px"
	 viewBox="0 0 256 256" enable-background="new 0 0 256 256" xml:space="preserve">
<g>
	<path d="M59.7,148.9L90,161c0.5,0.2,0.9,0.5,1.3,0.8l84.2-90.2L59.7,148.9z"/>
	<path d="M94.9,165.3C94.9,165.3,94.9,165.3,94.9,165.3l14,24.4l80.7-125.8L94.9,165.3z"/>
	<path d="M128.4,0.3c-70.7,0-128,57.3-128,128s57.3,128,128,128s128-57.3,128-128S199.1,0.3,128.4,0.3z M203.9,50.8
		l-25,150c-0.3,1.5-1.2,2.8-2.5,3.5c-0.8,0.4-1.6,0.6-2.4,0.6c-0.6,0-1.3-0.1-1.9-0.4l-48.5-19.4l-10.4,17.3
		c-0.9,1.5-2.5,2.4-4.3,2.4c0,0,0,0-0.1,0c-1.8,0-3.4-1-4.3-2.5l-18.4-32.2l-39.1-15.7c-1.7-0.7-2.9-2.3-3.1-4.1
		c-0.2-1.8,0.6-3.7,2.2-4.7l150-100c0.8-0.6,1.8-0.8,2.8-0.8c0.9,0,1.9,0.3,2.7,0.8C203.4,46.9,204.3,48.9,203.9,50.8z"/>
	<path d="M127.4,176l42.7,17.1L190,73.4l-65.8,101.9C125.3,175.4,126.4,175.6,127.4,176z"/>
</g>
</svg>
