<?xml version="1.0" encoding="utf-8"?>
<!-- Generator: Adobe Illustrator 18.1.0, SVG Export Plug-In . SVG Version: 6.00 Build 0)  -->
<svg version="1.1" id="Layer_1" xmlns="http://www.w3.org/2000/svg" xmlns:xlink="http://www.w3.org/1999/xlink" x="0px" y="0px"
	 viewBox="0 0 256 256" enable-background="new 0 0 256 256" xml:space="preserve">
<path d="M128,0C57.3,0,0,57.3,0,128s57.3,128,128,128s128-57.3,128-128S198.7,0,128,0z M187.9,92
	c0.1,1.4,0.1,2.8,0.1,4.2c0,43.4-33,93.4-93.4,93.4c-18.5,0-35.8-5.4-50.3-14.7c2.6,0.3,5.2,0.5,7.8,0.5c15.4,0,29.5-5.2,40.8-14
	c-14.4-0.3-26.5-9.8-30.7-22.8c2,0.4,4.1,0.6,6.2,0.6c3,0,5-0.4,7.8-1.1c-15-3-27.2-16.3-27.2-32.2c0-0.1,0-0.3,0-0.4
	c5,2.5,10.4,3.9,15.7,4.1c-8.8-5.9-14.2-15.9-14.2-27.3c0-6,1.8-11.6,4.7-16.5C71.4,85.5,95.7,98.5,123,99.9
	c-0.6-2.4-0.8-4.9-0.8-7.5c0-18.1,14.7-32.8,32.9-32.8c9.4,0,18,4,24,10.4c7.5-1.5,14.5-4.2,20.9-8c-2.4,7.7-7.6,14.1-14.4,18.2
	c6.6-0.8,12.9-2.6,18.8-5.1c0,0,0,0,0,0l0,0c0,0,0,0,0,0C199.8,81.6,194.3,87.4,187.9,92z"/>
</svg>
