<?xml version="1.0" encoding="utf-8"?>
<!-- Generator: Adobe Illustrator 18.1.0, SVG Export Plug-In . SVG Version: 6.00 Build 0)  -->
<svg version="1.1" id="Layer_1" xmlns="http://www.w3.org/2000/svg" xmlns:xlink="http://www.w3.org/1999/xlink" x="0px" y="0px"
	 viewBox="0 0 256 256" enable-background="new 0 0 256 256" xml:space="preserve">
<path d="M127.6-0.7c-70.7,0-128,57.3-128,128s57.3,128,128,128s128-57.3,128-128S198.3-0.7,127.6-0.7z M97.4,157.4
	c0,0-1.5,2.9-2.7,5.3s-4.2,3.2-6.1,3.2H63.3c-4.4,0-4.3-3.2-3.2-5.5c1.1-2.2,1.6-3.2,1.6-3.2l20-40L70.7,95.2c0,0-0.5-1.2-1.6-3.4
	C68,89.5,67.8,86,72.2,86h25.1c2,0,4.9,1.1,6.1,3.5c1.2,2.4,2.8,5.6,2.8,5.6l11.1,22.3L97.4,157.4z M203.4,56.5
	c-1.1,2.2-1.6,3.2-1.6,3.2l-44.4,88.9l26.7,53.3c0,0,0.5,1.2,1.6,3.4c1.1,2.2,1.3,5.7-3.2,5.7h-25.1c-2,0-4.9-1.1-6.1-3.5
	c-1.2-2.4-2.8-5.6-2.8-5.6l-26.7-53.4l44.4-88.9c0,0,1.5-2.9,2.8-5.4s4.2-3.3,6.1-3.3h25.1C204.7,51,204.6,54.3,203.4,56.5z"/>
</svg>
